<svg width="43" height="38" viewBox="0 0 43 38" fill="none" xmlns="http://www.w3.org/2000/svg">
<path d="M16.0647 18.0898H10.9353L13.4985 10.6091L16.0647 18.0898ZM24 25.997L16.6367 5H10.3484L3 25.997H8.2253L9.50093 22.2838H17.5021L18.7747 26L24 25.997Z" fill="#E7E7E7"/>
<path d="M39.2366 32.1385L38.9288 33.465C38.8734 33.7266 38.8334 33.9256 38.8026 34.1209L38.7718 34.0066C38.7164 33.7634 38.7164 33.7561 38.6456 33.4834L38.2854 32.1385H37.5128L38.3224 34.6109C38.4086 34.8651 38.4147 34.8836 38.4147 34.9794C38.4147 35.2336 38.2978 35.3478 38.0423 35.3478H37.8299V36H38.2516C38.7995 36 38.9165 35.8784 39.1473 35.0936L40 32.1459L39.2366 32.1385ZM37.1557 32.1754H36.7125V31.2432H35.9891V32.1754H35.6443V32.7833H35.9891V34.1245C35.9891 34.5814 36.0199 34.7399 36.1307 34.8873C36.2415 35.0346 36.3954 35.0825 36.7094 35.0825H37.1681V34.4267H36.9095C36.7402 34.4267 36.7248 34.3898 36.7248 33.9256V32.7833H37.1681L37.1557 32.1754ZM35.1488 31.0184H34.4254V31.7296H35.1488V31.0184ZM35.1488 32.1238H34.4254V35.0715H35.1488V32.1238ZM33.9175 33.0081C33.8559 32.3891 33.4711 32.0464 32.8401 32.0464C32.2091 32.0464 31.7935 32.4149 31.7935 32.9971C31.7935 33.465 32.0028 33.7045 32.5415 33.8445L32.9879 33.9661C33.1818 34.0214 33.2618 34.0987 33.2618 34.2351C33.2618 34.3714 33.1079 34.5225 32.8863 34.5225C32.5969 34.5225 32.443 34.3898 32.403 34.1135H31.7258C31.7658 34.7657 32.1875 35.1489 32.8709 35.1489C33.5542 35.1489 33.976 34.7583 33.976 34.1393C33.9826 33.9211 33.9161 33.7089 33.7913 33.5497C33.6344 33.3859 33.4384 33.2853 33.231 33.2623L32.7785 33.1481C32.5508 33.0855 32.4707 33.0339 32.4707 32.9234C32.4707 32.8128 32.6092 32.6802 32.8155 32.6802C33.0217 32.6802 33.2033 32.7944 33.231 33.0155L33.9175 33.0081ZM29.8635 32.1238V35.0715H30.5869V34.2498C30.5624 33.8993 30.5948 33.5465 30.6823 33.2108C30.7824 32.9699 30.9936 32.8246 31.2179 32.8423C31.2794 32.8379 31.3411 32.8379 31.4026 32.8423V32.0612C30.8793 32.0612 30.6946 32.1901 30.553 32.6654L30.5745 32.1422L29.8635 32.1238ZM27.6072 33.2292C27.6346 32.9155 27.8611 32.6815 28.1243 32.6949C28.2477 32.6858 28.3688 32.7379 28.459 32.839C28.5493 32.9401 28.6008 33.0812 28.6014 33.2292H27.6072ZM29.3463 33.8371C29.3485 33.5457 29.3068 33.2561 29.2232 32.9823C29.0676 32.4183 28.6169 32.0476 28.1212 32.0759C27.7789 32.0671 27.449 32.2294 27.2107 32.5237C26.9724 32.818 26.8473 33.2178 26.8653 33.6271C26.8402 34.0395 26.964 34.445 27.2053 34.7409C27.4466 35.0368 27.7823 35.1947 28.1274 35.1747C28.6527 35.2212 29.1378 34.8362 29.3063 34.2388H28.5737C28.4827 34.4143 28.318 34.515 28.1458 34.5004C28.0033 34.5084 27.8641 34.4471 27.7598 34.3306C27.6555 34.2141 27.5949 34.0521 27.5918 33.8814L29.3463 33.8371ZM25.7725 35.0531L26.6067 32.1054H25.8218L25.5725 33.2329C25.5355 33.4097 25.477 33.745 25.4186 34.0803C25.3385 33.7119 25.277 33.4392 25.2246 33.2329L24.9507 32.1054H24.1965L25.0769 35.0531H25.7725ZM23.7502 31H23.0083V31.7296H23.7317L23.7502 31ZM23.7502 32.1054H23.0083V35.0531H23.7317L23.7502 32.1054ZM20.1087 32.1054V35.0531H20.832V33.4282C20.8121 33.2553 20.8509 33.0801 20.9398 32.9418C21.0186 32.8384 21.1307 32.7807 21.2476 32.7833C21.368 32.7707 21.4851 32.8351 21.5554 32.9528C21.626 33.1134 21.6529 33.2963 21.6324 33.4761V35.0789H22.3557V33.1739C22.3557 32.4812 22.0295 32.0685 21.4969 32.0685C21.2389 32.0672 20.9934 32.202 20.8259 32.437V32.1496L20.1087 32.1054ZM18.6557 31V33.7192C18.6792 33.9065 18.6279 34.0961 18.5172 34.2314C18.2433 34.4758 17.8677 34.4758 17.5938 34.2314C17.4797 34.0982 17.425 33.9083 17.446 33.7192V31.0184H16.6857V33.7634C16.6464 34.1684 16.7836 34.5691 17.0489 34.8246C17.6552 35.2882 18.4312 35.2882 19.0374 34.8246C19.3029 34.5706 19.4412 34.1715 19.4037 33.7671V31.0184L18.6557 31ZM13.6537 32.7465C14.0261 32.7465 14.2324 33.056 14.2324 33.6234C14.2324 34.1909 14.02 34.4562 13.6537 34.4562C13.2874 34.4562 13.078 34.1393 13.078 33.5903C13.078 33.0413 13.2874 32.7318 13.6537 32.7318V32.7465ZM13.6537 32.0427C12.9388 32.0427 12.3593 32.7364 12.3593 33.5921C12.3593 34.4478 12.9388 35.1415 13.6537 35.1415C14.3685 35.1415 14.948 34.4478 14.948 33.5921C14.948 32.7364 14.3685 32.0427 13.6537 32.0427ZM12.0314 32.157H11.5882V31.2432H10.8679V32.1754H10.5201V32.7833H10.8648V34.1245C10.8648 34.5814 10.8956 34.7399 11.0064 34.8873C11.1172 35.0346 11.2711 35.0825 11.5851 35.0825H12.0284V34.4267H11.7729C11.6036 34.4267 11.5913 34.3898 11.5913 33.9256V32.7833H12.0345L12.0314 32.157ZM10.0799 31.0184H9.35033V35.0715H10.0799V31.0184ZM8.0421 34.1282C7.94168 34.3652 7.73436 34.5095 7.51265 34.4967C7.28794 34.4967 7.14634 34.3825 7.14634 34.1872C7.14634 33.9919 7.25716 33.9071 7.5188 33.8187L7.77737 33.7524C7.86788 33.732 7.95654 33.7011 8.0421 33.6603V34.1282ZM7.2079 33.0634C7.23869 32.8276 7.38028 32.6949 7.63885 32.6949C7.89742 32.6949 8.02055 32.7981 8.02055 32.9676C8.02055 33.1371 7.96514 33.1371 7.802 33.1665L7.41107 33.2439C6.72463 33.3766 6.43527 33.664 6.43527 34.213C6.43527 34.762 6.79542 35.1378 7.33411 35.1378C7.59537 35.1536 7.85081 35.0419 8.0421 34.8283C8.06672 34.9388 8.06672 34.9573 8.0975 35.0604H8.83627C8.75624 34.913 8.74393 34.8725 8.74393 34.5556V33.2218C8.78129 32.9057 8.69105 32.5871 8.50075 32.3633C8.25958 32.1372 7.95666 32.0269 7.65116 32.0538C6.95857 32.0538 6.60765 32.3817 6.56148 33.0634H7.2079ZM4.99775 33.5129H4.23128L4.64376 31.9248L4.99775 33.5129ZM5.16706 34.2498L5.34867 35.0641H6.21364L5.13627 31.0111H4.18511L3 35.0789H3.82804L4.04043 34.2646L5.16706 34.2498Z" fill="#E7E7E7"/>
<path d="M32.0647 21.3661V26H26.9353V21.3661H32.0647ZM29.5392 5C34.5217 5 38 7.20789 38 11.152H37.9869C37.9869 13.7313 36.1597 15.1109 34.4499 16.1308C32.5639 17.2569 32.0516 17.8818 32.0516 19.5178V19.7035H26.9288V19.2496C26.9288 16.2016 28.234 14.9222 30.3908 13.8286C31.882 13.0799 32.5345 12.3636 32.5345 11.3112C32.5345 9.9906 31.2653 9.1269 29.4739 9.1269C27.5292 9.1269 26.0967 9.98175 26.0967 11.889H21V11.2464C21 7.25505 24.7198 5 29.5392 5Z" fill="#E7E7E7"/>
</svg>
