<svg width="30" height="30" viewBox="0 0 30 30" fill="none" xmlns="http://www.w3.org/2000/svg">
<path opacity="0.9" d="M5.27573 12.3105C4.89523 12.71 4.91023 13.3435 5.31023 13.724C5.71023 14.105 6.34323 14.089 6.72423 13.6895L13.9997 6.0185V26C13.9997 26.552 14.4477 27 14.9997 27C15.5517 27 15.9997 26.552 15.9997 26V6.0505L23.2757 13.6895C23.6567 14.0895 24.2897 14.105 24.6897 13.724C24.8957 13.5275 24.9997 13.264 24.9997 13C24.9997 12.752 24.9082 12.504 24.7237 12.3105L16.4137 3.586C16.0362 3.208 15.5342 3 14.9997 3C14.4652 3 13.9632 3.208 13.5687 3.6035L5.27573 12.3105Z" fill="#E7E7E7"/>
</svg>
