<svg width="30" height="30" viewBox="0 0 30 30" fill="none" xmlns="http://www.w3.org/2000/svg">
<path d="M25.7148 6H4.28516C3.02258 6 2 6.97558 2 8.16667V21.1667C2 22.3648 3.0301 23.3333 4.28516 23.3333H25.7148C26.9669 23.3333 28 22.3689 28 21.1667V8.16667C28 6.9777 26.9815 6 25.7148 6ZM25.3948 7.44444C24.9279 7.88476 16.8933 15.4627 16.6159 15.7243C16.1842 16.1336 15.6104 16.3589 15 16.3589C14.3896 16.3589 13.8158 16.1335 13.3827 15.723C13.1961 15.547 5.25015 8.05275 4.60518 7.44444H25.3948ZM3.52344 20.8727V8.46157L10.1066 14.6705L3.52344 20.8727ZM4.60614 21.8889L11.1867 15.6892L12.3069 16.7457C13.0263 17.4278 13.9827 17.8034 15 17.8034C16.0173 17.8034 16.9737 17.4278 17.6917 16.7471L18.8133 15.6892L25.3939 21.8889H4.60614ZM26.4766 20.8727L19.8934 14.6705L26.4766 8.46157V20.8727Z" fill="#E7E7E7"/>
</svg>
