<svg width="30" height="30" viewBox="0 0 30 30" fill="none" xmlns="http://www.w3.org/2000/svg">
<path d="M15.494 2C9.70655 2 5 6.37287 5 11.75C5 18.5084 14.4726 27.3874 14.8748 27.7628C15.0462 27.9204 15.2701 28 15.494 28C15.7179 28 15.9417 27.9204 16.1131 27.7628C16.5154 27.3874 25.988 18.5084 25.988 11.75C25.988 6.37287 21.2814 2 15.494 2ZM15.494 26.0126C13.4057 23.9359 6.749 16.9126 6.749 11.75C6.749 7.26988 10.672 3.625 15.494 3.625C20.316 3.625 24.239 7.26988 24.239 11.75C24.239 16.9078 17.5823 23.9359 15.494 26.0126Z" fill="#E7E7E7"/>
<path d="M15.4941 6.875C12.6012 6.875 10.2471 9.06225 10.2471 11.75C10.2471 14.4378 12.6012 16.625 15.4941 16.625C18.3869 16.625 20.7411 14.4378 20.7411 11.75C20.7411 9.06225 18.3869 6.875 15.4941 6.875ZM15.4941 15C13.5649 15 11.9961 13.5424 11.9961 11.75C11.9961 9.95762 13.5649 8.5 15.4941 8.5C17.4232 8.5 18.9921 9.95762 18.9921 11.75C18.9921 13.5424 17.4232 15 15.4941 15Z" fill="#E7E7E7"/>
</svg>
