<svg width="491" height="120" viewBox="0 0 491 120" fill="none" xmlns="http://www.w3.org/2000/svg">
<path d="M39.1993 58.8247L57.7063 16.2331H68.7768V72.0077H59.143V35.2472L43.0866 72.0077H35.312L18.8331 35.2472V72.0077H9.11475V16.2331H20.1852L39.1993 58.8247ZM92.5094 72.0077H82.7911V16.2331H92.5094V72.0077ZM145.75 28.2331C143.947 26.9937 141.778 26.0077 139.243 25.2754C136.764 24.4866 133.919 24.0923 130.708 24.0923C127.666 24.0923 125.046 24.5711 122.849 25.5289C120.708 26.4867 118.961 27.8388 117.609 29.5852C116.257 31.3316 115.243 33.4443 114.567 35.9232C113.947 38.3457 113.637 41.0499 113.637 44.0359C113.637 50.8528 115.074 56.0077 117.947 59.5007C120.877 62.9937 125.074 64.7401 130.539 64.7401C133.919 64.7401 136.989 64.2331 139.75 63.219C142.567 62.2049 144.877 60.9655 146.68 59.5007L149.215 67.8669C146.961 69.219 144.229 70.4303 141.018 71.5007C137.863 72.5148 134.285 73.0218 130.285 73.0218C125.666 73.0218 121.666 72.2613 118.285 70.7401C114.905 69.219 112.088 67.1626 109.835 64.5711C107.637 61.9796 106.004 58.9937 104.933 55.6134C103.863 52.1768 103.328 48.543 103.328 44.712C103.328 40.7119 103.919 36.9656 105.102 33.4725C106.285 29.9795 108.032 26.9373 110.342 24.3458C112.708 21.6978 115.609 19.6134 119.046 18.0923C122.539 16.5711 126.595 15.8105 131.215 15.8105C134.257 15.8105 137.299 16.1486 140.342 16.8246C143.384 17.4444 146.004 18.3176 148.201 19.4444L145.75 28.2331ZM172.448 48.1768C171.828 48.1768 171.181 48.1768 170.505 48.1768C169.885 48.1768 169.209 48.1485 168.476 48.0923V72.0077H158.758V16.2331C159.66 16.1767 160.674 16.1204 161.8 16.0641C162.984 16.0077 164.167 15.9796 165.35 15.9796C166.533 15.9232 167.631 15.8951 168.645 15.8951C169.716 15.8387 170.561 15.8105 171.181 15.8105C178.393 15.8105 183.886 17.1909 187.66 19.9514C191.434 22.6556 193.322 26.6275 193.322 31.8669C193.322 35.1909 192.505 38.1767 190.871 40.8246C189.237 43.4726 186.505 45.4443 182.674 46.7401L203.125 72.0077H191.885L172.448 48.1768ZM172.026 23.9232C171.575 23.9232 171.041 23.9232 170.42 23.9232C169.801 23.9232 169.153 23.9515 168.476 24.0077V40.0641H173.716C176.758 40.0641 179.069 39.3035 180.646 37.7824C182.223 36.2613 183.012 34.0923 183.012 31.2754C183.012 28.7401 182.223 26.881 180.646 25.6979C179.125 24.5148 176.251 23.9232 172.026 23.9232ZM232.252 15.8105C236.647 15.8105 240.534 16.5711 243.914 18.0923C247.295 19.6134 250.139 21.6978 252.45 24.3458C254.76 26.9373 256.506 29.9515 257.689 33.388C258.872 36.8246 259.464 40.4303 259.464 44.2049C259.464 47.9232 258.872 51.5288 257.689 55.0218C256.562 58.4584 254.816 61.5289 252.45 64.2331C250.139 66.881 247.239 69.0218 243.745 70.6556C240.309 72.2331 236.28 73.0218 231.661 73.0218C227.153 73.0218 223.239 72.2613 219.914 70.7401C216.59 69.219 213.83 67.1626 211.633 64.5711C209.436 61.9796 207.774 58.9937 206.647 55.6134C205.577 52.1768 205.041 48.5711 205.041 44.7965C205.041 40.7964 205.633 37.0501 206.816 33.557C208.055 30.0077 209.829 26.9373 212.14 24.3458C214.45 21.6978 217.295 19.6134 220.675 18.0923C224.055 16.5711 227.914 15.8105 232.252 15.8105ZM231.83 64.7401C234.928 64.7401 237.548 64.2331 239.689 63.219C241.886 62.1486 243.69 60.712 245.098 58.9092C246.505 57.05 247.519 54.881 248.14 52.4021C248.816 49.9232 249.154 47.2754 249.154 44.4585C249.154 41.4162 248.816 38.6557 248.14 36.1768C247.464 33.6978 246.421 31.5571 245.013 29.7542C243.605 27.9514 241.802 26.5712 239.605 25.6134C237.463 24.5993 234.928 24.0923 231.999 24.0923C229.012 24.0923 226.45 24.5993 224.309 25.6134C222.225 26.5712 220.506 27.9233 219.154 29.6697C217.858 31.4161 216.901 33.5008 216.281 35.9232C215.718 38.3457 215.436 41.0219 215.436 43.9514C215.436 50.8247 216.843 56.0077 219.661 59.5007C222.478 62.9937 226.535 64.7401 231.83 64.7401ZM306.634 57.219V16.2331H316.352V72.0077H304.437L279.93 31.1063V72.0077H270.211V16.2331H282.127L306.634 57.219ZM354.269 15.8105C358.663 15.8105 362.55 16.5711 365.931 18.0923C369.311 19.6134 372.157 21.6978 374.466 24.3458C376.776 26.9373 378.522 29.9515 379.705 33.388C380.889 36.8246 381.48 40.4303 381.48 44.2049C381.48 47.9232 380.889 51.5288 379.705 55.0218C378.58 58.4584 376.832 61.5289 374.466 64.2331C372.157 66.881 369.255 69.0218 365.762 70.6556C362.326 72.2331 358.298 73.0218 353.677 73.0218C349.171 73.0218 345.255 72.2613 341.931 70.7401C338.608 69.219 335.846 67.1626 333.649 64.5711C331.452 61.9796 329.79 58.9937 328.663 55.6134C327.593 52.1768 327.058 48.5711 327.058 44.7965C327.058 40.7964 327.649 37.0501 328.832 33.557C330.073 30.0077 331.847 26.9373 334.156 24.3458C336.467 21.6978 339.311 19.6134 342.691 18.0923C346.072 16.5711 349.932 15.8105 354.269 15.8105ZM353.846 64.7401C356.946 64.7401 359.566 64.2331 361.705 63.219C363.903 62.1486 365.706 60.712 367.114 58.9092C368.523 57.05 369.538 54.881 370.156 52.4021C370.832 49.9232 371.17 47.2754 371.17 44.4585C371.17 41.4162 370.832 38.6557 370.156 36.1768C369.48 33.6978 368.439 31.5571 367.029 29.7542C365.621 27.9514 363.818 26.5712 361.621 25.6134C359.481 24.5993 356.946 24.0923 354.015 24.0923C351.03 24.0923 348.467 24.5993 346.325 25.6134C344.241 26.5712 342.522 27.9233 341.17 29.6697C339.876 31.4161 338.917 33.5008 338.297 35.9232C337.734 38.3457 337.452 41.0219 337.452 43.9514C337.452 50.8247 338.861 56.0077 341.677 59.5007C344.495 62.9937 348.551 64.7401 353.846 64.7401ZM383.035 16.2331H393.598L411.345 60.1768L427.401 16.2331H437.542L415.232 72.0077H407.542L383.035 16.2331ZM487.876 72.0077H477.313L470.975 55.7824H449.932L444.186 72.0077H434.045L455.679 16.2331H464.045L487.876 72.0077ZM452.637 48.1768H467.932L459.904 27.6415L452.637 48.1768Z" fill="#E7E7E7"/>
<path d="M17.1786 109.415C15.576 109.415 14.1562 109.127 12.9194 108.549C11.7001 107.955 10.742 107.063 10.0452 105.875C9.34839 104.669 9 103.15 9 101.316C9 99.8553 9.21775 98.5054 9.65324 97.2658C10.1062 96.0092 10.742 94.914 11.5607 93.9801C12.3968 93.0461 13.4159 92.316 14.6179 91.7896C15.8372 91.2632 17.2047 91 18.7202 91C19.7654 91 20.7583 91.1443 21.699 91.433C22.6397 91.7217 23.4584 92.1377 24.1552 92.6811C24.4165 92.8678 24.5733 93.0886 24.6255 93.3433C24.6952 93.581 24.6865 93.8188 24.5994 94.0565C24.5297 94.2942 24.4078 94.498 24.2336 94.6678C24.0768 94.8206 23.8765 94.914 23.6326 94.948C23.4061 94.9649 23.171 94.897 22.9271 94.7442C22.2477 94.2348 21.5596 93.8782 20.8628 93.6744C20.1661 93.4537 19.417 93.3433 18.6157 93.3433C17.2047 93.3433 15.994 93.6914 14.9837 94.3876C13.9733 95.0668 13.1982 96.0092 12.6581 97.2148C12.1356 98.4035 11.8743 99.7534 11.8743 101.265C11.8743 102.64 12.092 103.752 12.5275 104.601C12.963 105.45 13.5901 106.079 14.4088 106.486C15.245 106.877 16.2553 107.072 17.4399 107.072C18.1715 107.072 18.8596 106.979 19.5041 106.792C20.1486 106.588 20.8019 106.257 21.4638 105.798C21.7425 105.629 22.0038 105.561 22.2477 105.595C22.4916 105.612 22.6919 105.705 22.8487 105.875C23.0229 106.028 23.1361 106.223 23.1884 106.461C23.2406 106.681 23.2232 106.911 23.1361 107.148C23.049 107.386 22.8748 107.59 22.6135 107.76C21.8296 108.32 20.9674 108.736 20.0267 109.008C19.086 109.279 18.1367 109.415 17.1786 109.415ZM32.0366 109.415C30.7824 109.415 29.6936 109.195 28.7704 108.753C27.8646 108.295 27.1591 107.649 26.6539 106.817C26.1661 105.985 25.9223 105 25.9223 103.863C25.9223 102.504 26.2097 101.273 26.7845 100.169C27.3594 99.0657 28.1607 98.1827 29.1885 97.5205C30.2337 96.8583 31.4443 96.5271 32.8205 96.5271C33.8482 96.5271 34.7105 96.7054 35.4073 97.062C36.1041 97.4016 36.6528 97.8686 37.0535 98.4629C37.4541 99.0572 37.7154 99.7279 37.8374 100.475C37.9767 101.222 38.0029 101.986 37.9158 102.767C37.8809 103.09 37.7938 103.302 37.6545 103.404C37.5151 103.506 37.3148 103.557 37.0535 103.557H28.0126L28.2217 101.978H36.2435L35.7731 102.334C35.8951 101.587 35.8689 100.917 35.6947 100.322C35.538 99.7279 35.2244 99.2525 34.7541 98.8959C34.2837 98.5223 33.6305 98.3355 32.7944 98.3355C31.9408 98.3355 31.2179 98.5308 30.6256 98.9214C30.0507 99.2949 29.5978 99.7789 29.2669 100.373C28.9533 100.968 28.7356 101.596 28.6136 102.258L28.5091 102.946C28.2652 104.304 28.4743 105.391 29.1362 106.206C29.8156 107.021 30.8433 107.429 32.2195 107.429C32.7944 107.429 33.3692 107.361 33.9441 107.225C34.5189 107.089 35.0502 106.868 35.538 106.563C35.8167 106.41 36.0606 106.342 36.2696 106.359C36.496 106.359 36.6702 106.427 36.7922 106.563C36.9315 106.698 37.0186 106.868 37.0535 107.072C37.0883 107.259 37.0535 107.463 36.949 107.683C36.8619 107.887 36.6964 108.065 36.4525 108.218C35.8602 108.626 35.1547 108.931 34.336 109.135C33.5173 109.322 32.7508 109.415 32.0366 109.415ZM42.0732 109.364C41.6725 109.364 41.3764 109.228 41.1847 108.957C40.9931 108.685 40.9322 108.312 41.0018 107.836L42.6219 97.8516C42.6915 97.4271 42.857 97.113 43.1183 96.9092C43.3796 96.6884 43.7193 96.5781 44.1374 96.5781C44.5206 96.5781 44.808 96.6969 44.9997 96.9347C45.1913 97.1724 45.2435 97.529 45.1564 98.0044L44.869 99.8893L44.7122 99.4563C45.1477 98.5054 45.7748 97.7837 46.5936 97.2912C47.4297 96.7818 48.4139 96.5271 49.5462 96.5271C50.4869 96.5271 51.2708 96.7139 51.8979 97.0875C52.5424 97.4611 52.9953 98.0299 53.2566 98.794C53.5353 99.5581 53.5789 100.526 53.3873 101.698L52.3682 108.091C52.316 108.515 52.1592 108.838 51.8979 109.059C51.6366 109.262 51.2882 109.364 50.8527 109.364C50.4346 109.364 50.1298 109.228 49.9382 108.957C49.7465 108.685 49.6856 108.32 49.7553 107.862L50.7482 101.749C50.9224 100.679 50.8353 99.8893 50.4869 99.3798C50.1385 98.8534 49.5114 98.5903 48.6056 98.5903C47.4384 98.5903 46.5065 98.9384 45.8097 99.6346C45.1303 100.331 44.6948 101.282 44.5032 102.487L43.5887 108.091C43.4667 108.94 42.9616 109.364 42.0732 109.364ZM62.4849 109.415C61.4397 109.415 60.5687 109.22 59.8719 108.829C59.1926 108.439 58.7135 107.896 58.4348 107.199C58.1735 106.503 58.1213 105.688 58.278 104.754L59.271 98.7431H57.86C57.5116 98.7431 57.2329 98.6667 57.0238 98.5138C56.8322 98.361 56.7364 98.1573 56.7364 97.9025C56.7364 97.529 56.8583 97.2488 57.1022 97.062C57.3635 96.8583 57.6945 96.7564 58.0951 96.7564H59.5845L60.0287 94.031C60.0984 93.6235 60.2552 93.3263 60.499 93.1395C60.7429 92.9358 61.0652 92.8339 61.4658 92.8339C61.9188 92.8339 62.241 92.9612 62.4326 93.2159C62.6243 93.4537 62.6852 93.8018 62.6156 94.2602L62.2236 96.7564H65.0979C65.4637 96.7564 65.7424 96.8243 65.934 96.9601C66.1256 97.096 66.2214 97.3082 66.2214 97.5969C66.2214 97.9195 66.1082 98.1912 65.8818 98.412C65.6727 98.6327 65.3679 98.7431 64.9672 98.7431H61.91L60.9433 104.55C60.7865 105.518 60.8997 106.214 61.2829 106.639C61.6662 107.063 62.2323 107.276 62.9814 107.276C63.3123 107.276 63.5736 107.25 63.7653 107.199C63.9743 107.131 64.1572 107.097 64.314 107.097C64.523 107.097 64.6711 107.157 64.7582 107.276C64.8627 107.378 64.915 107.564 64.915 107.836C64.915 108.295 64.8366 108.617 64.6798 108.804C64.5404 108.991 64.3314 109.127 64.0527 109.212C63.8611 109.279 63.6085 109.33 63.2949 109.364C62.9988 109.398 62.7288 109.415 62.4849 109.415ZM68.7621 109.364C68.344 109.364 68.0392 109.237 67.8476 108.982C67.6559 108.728 67.595 108.371 67.6647 107.913L69.3108 97.8261C69.3805 97.4016 69.5373 97.0875 69.7812 96.8837C70.0425 96.68 70.3821 96.5781 70.8002 96.5781C71.2009 96.5781 71.497 96.7054 71.6886 96.9601C71.8802 97.1979 71.9412 97.5544 71.8715 98.0299L71.5841 99.7364H71.3228C71.6712 98.7346 72.2635 97.962 73.0996 97.4186C73.9358 96.8582 74.8938 96.5526 75.9739 96.5017C76.4094 96.4847 76.6968 96.5441 76.8361 96.68C76.9929 96.8158 77.0713 97.0535 77.0713 97.3931C77.0713 97.8346 76.9668 98.1573 76.7578 98.361C76.5487 98.5648 76.209 98.6921 75.7387 98.7431L75.1116 98.8195C73.8225 98.9384 72.8993 99.3119 72.3419 99.9402C71.7844 100.568 71.4099 101.426 71.2183 102.513L70.3037 108.142C70.2515 108.549 70.0947 108.855 69.8334 109.059C69.5721 109.262 69.215 109.364 68.7621 109.364ZM84.4193 109.415C83.1651 109.415 82.0764 109.195 81.1531 108.753C80.2473 108.295 79.5418 107.649 79.0366 106.817C78.5489 105.985 78.305 105 78.305 103.863C78.305 102.504 78.5924 101.273 79.1673 100.169C79.7421 99.0657 80.5434 98.1827 81.5712 97.5205C82.6164 96.8583 83.827 96.5271 85.2032 96.5271C86.231 96.5271 87.0932 96.7054 87.79 97.062C88.4868 97.4016 89.0355 97.8686 89.4362 98.4629C89.8368 99.0572 90.0981 99.7279 90.2201 100.475C90.3594 101.222 90.3856 101.986 90.2985 102.767C90.2636 103.09 90.1765 103.302 90.0372 103.404C89.8978 103.506 89.6975 103.557 89.4362 103.557H80.3954L80.6044 101.978H88.6262L88.1558 102.334C88.2778 101.587 88.2517 100.917 88.0775 100.322C87.9207 99.7279 87.6071 99.2525 87.1368 98.8959C86.6665 98.5223 86.0132 98.3355 85.1771 98.3355C84.3235 98.3355 83.6006 98.5308 83.0083 98.9214C82.4335 99.2949 81.9806 99.7789 81.6496 100.373C81.336 100.968 81.1183 101.596 80.9963 102.258L80.8918 102.946C80.6479 104.304 80.857 105.391 81.5189 106.206C82.1983 107.021 83.2261 107.429 84.6022 107.429C85.1771 107.429 85.7519 107.361 86.3268 107.225C86.9016 107.089 87.4329 106.868 87.9207 106.563C88.1994 106.41 88.4433 106.342 88.6523 106.359C88.8788 106.359 89.053 106.427 89.1749 106.563C89.3143 106.698 89.4014 106.868 89.4362 107.072C89.471 107.259 89.4362 107.463 89.3317 107.683C89.2446 107.887 89.0791 108.065 88.8352 108.218C88.2429 108.626 87.5374 108.931 86.7187 109.135C85.9 109.322 85.1335 109.415 84.4193 109.415ZM103.148 109.364C102.748 109.364 102.452 109.237 102.26 108.982C102.068 108.711 102.007 108.337 102.077 107.862L103.567 98.7431H102.234C101.886 98.7431 101.624 98.6752 101.45 98.5393C101.276 98.3865 101.189 98.1912 101.189 97.9535C101.189 97.5799 101.302 97.2913 101.528 97.0875C101.755 96.8667 102.051 96.7564 102.417 96.7564H104.194L103.828 97.0875L104.011 95.9668C104.237 94.5574 104.803 93.4452 105.709 92.6301C106.632 91.7981 107.93 91.3226 109.603 91.2038L110.413 91.1528C110.709 91.1358 110.935 91.1868 111.092 91.3056C111.266 91.4245 111.379 91.5858 111.432 91.7896C111.484 91.9764 111.484 92.1716 111.432 92.3754C111.379 92.5622 111.284 92.732 111.144 92.8848C111.005 93.0207 110.831 93.0971 110.622 93.1141L109.864 93.165C108.906 93.2329 108.165 93.4961 107.643 93.9546C107.12 94.4131 106.789 95.0838 106.65 95.9668L106.467 97.0111L106.258 96.7564H108.949C109.298 96.7564 109.559 96.8243 109.733 96.9601C109.907 97.096 109.994 97.2913 109.994 97.546C109.994 97.9195 109.881 98.2167 109.655 98.4374C109.428 98.6412 109.123 98.7431 108.74 98.7431H106.206L104.69 108.091C104.533 108.94 104.019 109.364 103.148 109.364ZM116.814 109.415C115.612 109.415 114.585 109.195 113.731 108.753C112.878 108.312 112.216 107.675 111.745 106.843C111.292 106.011 111.066 105.026 111.066 103.888C111.066 102.801 111.231 101.817 111.562 100.934C111.911 100.034 112.39 99.2525 113 98.5903C113.627 97.928 114.358 97.4186 115.194 97.062C116.031 96.7054 116.945 96.5271 117.938 96.5271C119.14 96.5271 120.168 96.7564 121.021 97.2148C121.875 97.6563 122.528 98.2931 122.981 99.1251C123.451 99.9402 123.687 100.917 123.687 102.054C123.687 103.141 123.512 104.134 123.164 105.034C122.833 105.934 122.354 106.715 121.727 107.378C121.117 108.023 120.394 108.524 119.558 108.88C118.722 109.237 117.807 109.415 116.814 109.415ZM116.867 107.429C117.773 107.429 118.53 107.182 119.14 106.69C119.75 106.197 120.211 105.544 120.525 104.729C120.856 103.897 121.021 102.98 121.021 101.978C121.021 100.857 120.743 100.008 120.185 99.4308C119.628 98.8365 118.861 98.5393 117.886 98.5393C116.997 98.5393 116.24 98.7855 115.612 99.278C115.003 99.7534 114.532 100.407 114.201 101.239C113.888 102.054 113.731 102.971 113.731 103.99C113.731 105.094 114.01 105.943 114.567 106.537C115.125 107.131 115.891 107.429 116.867 107.429ZM127.957 109.364C127.539 109.364 127.234 109.237 127.042 108.982C126.851 108.728 126.79 108.371 126.859 107.913L128.506 97.8261C128.575 97.4016 128.732 97.0875 128.976 96.8837C129.237 96.68 129.577 96.5781 129.995 96.5781C130.396 96.5781 130.692 96.7054 130.883 96.9601C131.075 97.1979 131.136 97.5544 131.066 98.0299L130.779 99.7364H130.518C130.866 98.7346 131.458 97.962 132.294 97.4186C133.13 96.8582 134.089 96.5526 135.169 96.5017C135.604 96.4847 135.891 96.5441 136.031 96.68C136.188 96.8158 136.266 97.0535 136.266 97.3931C136.266 97.8346 136.161 98.1573 135.952 98.361C135.743 98.5648 135.404 98.6921 134.933 98.7431L134.306 98.8195C133.017 98.9384 132.094 99.3119 131.537 99.9402C130.979 100.568 130.605 101.426 130.413 102.513L129.498 108.142C129.446 108.549 129.289 108.855 129.028 109.059C128.767 109.262 128.41 109.364 127.957 109.364ZM147.05 109.288C146.632 109.288 146.327 109.169 146.136 108.931C145.962 108.694 145.901 108.362 145.953 107.938L148.513 92.1716C148.583 91.7811 148.723 91.5009 148.932 91.3311C149.158 91.1443 149.463 91.0509 149.846 91.0509C150.194 91.0509 150.464 91.1274 150.656 91.2802C150.848 91.416 151.013 91.6622 151.153 92.0188L155.83 104.372H155.098L164.008 91.8151C164.217 91.5434 164.426 91.3481 164.635 91.2292C164.862 91.1104 165.149 91.0509 165.498 91.0509C165.898 91.0509 166.195 91.1698 166.386 91.4075C166.578 91.6453 166.639 91.9679 166.569 92.3754L163.982 108.142C163.93 108.515 163.799 108.804 163.59 109.008C163.381 109.195 163.076 109.288 162.676 109.288C162.275 109.288 161.979 109.169 161.787 108.931C161.596 108.694 161.526 108.362 161.578 107.938L163.695 94.897H164.296L156.405 106.002C156.248 106.24 156.082 106.41 155.908 106.512C155.751 106.597 155.551 106.639 155.307 106.639C155.011 106.639 154.776 106.571 154.602 106.435C154.445 106.299 154.314 106.096 154.21 105.824L149.951 94.948H150.499L148.357 108.142C148.304 108.515 148.165 108.804 147.939 109.008C147.73 109.195 147.433 109.288 147.05 109.288ZM170.235 109.364C169.835 109.364 169.538 109.237 169.347 108.982C169.155 108.711 169.094 108.337 169.164 107.862L170.81 97.8516C170.88 97.4271 171.037 97.113 171.28 96.9092C171.542 96.6884 171.89 96.5781 172.326 96.5781C172.726 96.5781 173.022 96.7139 173.214 96.9856C173.406 97.2403 173.467 97.6054 173.397 98.0808L171.751 108.091C171.681 108.515 171.524 108.838 171.28 109.059C171.037 109.262 170.688 109.364 170.235 109.364ZM172.77 93.9801C172.282 93.9801 171.916 93.8612 171.672 93.6235C171.428 93.3857 171.324 93.0546 171.359 92.6301C171.411 92.1207 171.603 91.7386 171.934 91.4839C172.265 91.2123 172.7 91.0764 173.24 91.0764C173.745 91.0764 174.12 91.1953 174.364 91.433C174.608 91.6707 174.712 92.0018 174.677 92.4264C174.625 92.9358 174.433 93.3263 174.102 93.598C173.789 93.8527 173.345 93.9801 172.77 93.9801ZM182.415 109.415C181.109 109.415 180.021 109.186 179.15 108.728C178.296 108.252 177.651 107.598 177.216 106.766C176.798 105.917 176.589 104.941 176.589 103.837C176.589 102.92 176.728 102.029 177.007 101.163C177.286 100.28 177.704 99.4987 178.261 98.8195C178.836 98.1233 179.568 97.5714 180.456 97.1639C181.344 96.7394 182.389 96.5271 183.591 96.5271C184.236 96.5271 184.863 96.612 185.473 96.7818C186.1 96.9347 186.64 97.1469 187.093 97.4186C187.389 97.5884 187.589 97.7837 187.694 98.0044C187.816 98.2082 187.859 98.4205 187.824 98.6412C187.789 98.845 187.702 99.0233 187.563 99.1761C187.441 99.3289 187.276 99.4308 187.067 99.4817C186.857 99.5157 186.631 99.4647 186.387 99.3289C185.969 99.0572 185.542 98.8619 185.107 98.7431C184.689 98.6242 184.227 98.5648 183.722 98.5648C182.921 98.5648 182.241 98.7176 181.684 99.0233C181.126 99.3119 180.665 99.7195 180.299 100.246C179.951 100.755 179.698 101.316 179.542 101.927C179.385 102.538 179.306 103.166 179.306 103.812C179.306 104.898 179.568 105.764 180.09 106.41C180.63 107.055 181.518 107.378 182.755 107.378C183.138 107.378 183.539 107.327 183.957 107.225C184.375 107.123 184.802 106.936 185.237 106.664C185.446 106.563 185.647 106.529 185.838 106.563C186.03 106.597 186.196 106.69 186.335 106.843C186.474 106.979 186.561 107.14 186.596 107.327C186.631 107.513 186.605 107.709 186.518 107.913C186.448 108.116 186.283 108.295 186.021 108.447C185.568 108.753 185.002 108.991 184.323 109.161C183.644 109.33 183.008 109.415 182.415 109.415ZM190.902 109.364C190.484 109.364 190.179 109.237 189.988 108.982C189.796 108.728 189.735 108.371 189.805 107.913L191.451 97.8261C191.521 97.4016 191.678 97.0875 191.921 96.8837C192.183 96.68 192.522 96.5781 192.94 96.5781C193.341 96.5781 193.637 96.7054 193.829 96.9601C194.02 97.1979 194.081 97.5544 194.012 98.0299L193.724 99.7364H193.463C193.811 98.7346 194.404 97.962 195.24 97.4186C196.076 96.8582 197.034 96.5526 198.114 96.5017C198.55 96.4847 198.837 96.5441 198.976 96.68C199.133 96.8158 199.212 97.0535 199.212 97.3931C199.212 97.8346 199.107 98.1573 198.898 98.361C198.689 98.5648 198.349 98.6921 197.879 98.7431L197.252 98.8195C195.963 98.9384 195.04 99.3119 194.482 99.9402C193.925 100.568 193.55 101.426 193.359 102.513L192.444 108.142C192.392 108.549 192.235 108.855 191.974 109.059C191.712 109.262 191.355 109.364 190.902 109.364ZM206.193 109.415C204.991 109.415 203.964 109.195 203.11 108.753C202.257 108.312 201.595 107.675 201.124 106.843C200.671 106.011 200.445 105.026 200.445 103.888C200.445 102.801 200.61 101.817 200.941 100.934C201.29 100.034 201.769 99.2525 202.378 98.5903C203.006 97.928 203.737 97.4186 204.573 97.062C205.409 96.7054 206.324 96.5271 207.317 96.5271C208.519 96.5271 209.547 96.7564 210.4 97.2148C211.254 97.6563 211.907 98.2931 212.36 99.1251C212.83 99.9402 213.065 100.917 213.065 102.054C213.065 103.141 212.891 104.134 212.543 105.034C212.212 105.934 211.733 106.715 211.106 107.378C210.496 108.023 209.773 108.524 208.937 108.88C208.101 109.237 207.186 109.415 206.193 109.415ZM206.246 107.429C207.151 107.429 207.909 107.182 208.519 106.69C209.129 106.197 209.59 105.544 209.904 104.729C210.235 103.897 210.4 102.98 210.4 101.978C210.4 100.857 210.122 100.008 209.564 99.4308C209.007 98.8365 208.24 98.5393 207.265 98.5393C206.376 98.5393 205.619 98.7855 204.991 99.278C204.382 99.7534 203.911 100.407 203.58 101.239C203.267 102.054 203.11 102.971 203.11 103.99C203.11 105.094 203.389 105.943 203.946 106.537C204.504 107.131 205.27 107.429 206.246 107.429ZM228.25 109.415C227.501 109.415 226.804 109.254 226.16 108.931C225.515 108.592 225.001 108.142 224.618 107.581C224.235 107.004 224.043 106.359 224.043 105.646C224.043 104.763 224.287 104.049 224.775 103.506C225.28 102.963 226.064 102.564 227.127 102.309C228.189 102.037 229.557 101.901 231.229 101.901H233.319L233.084 103.481H231.464C230.262 103.481 229.304 103.54 228.59 103.659C227.893 103.778 227.397 103.99 227.101 104.296C226.804 104.584 226.656 104.983 226.656 105.493C226.656 106.172 226.883 106.69 227.336 107.047C227.806 107.403 228.363 107.581 229.008 107.581C229.6 107.581 230.149 107.454 230.654 107.199C231.159 106.945 231.586 106.58 231.935 106.104C232.3 105.612 232.535 105.026 232.64 104.347L233.136 101.29C233.293 100.39 233.163 99.7025 232.745 99.227C232.344 98.7516 231.621 98.5138 230.576 98.5138C229.966 98.5138 229.374 98.5733 228.799 98.6921C228.242 98.811 227.675 99.0148 227.101 99.3034C226.839 99.4393 226.595 99.4902 226.369 99.4563C226.142 99.4053 225.96 99.3119 225.82 99.1761C225.681 99.0233 225.602 98.845 225.585 98.6412C225.568 98.4374 225.62 98.2337 225.742 98.0299C225.881 97.8261 226.108 97.6478 226.421 97.495C227.118 97.1554 227.858 96.9092 228.642 96.7564C229.426 96.6035 230.175 96.5271 230.889 96.5271C232.161 96.5271 233.163 96.7564 233.894 97.2148C234.643 97.6733 235.148 98.3101 235.41 99.1251C235.688 99.9402 235.741 100.883 235.567 101.952L234.574 108.091C234.521 108.515 234.365 108.838 234.103 109.059C233.859 109.262 233.537 109.364 233.136 109.364C232.753 109.364 232.466 109.245 232.274 109.008C232.083 108.753 232.022 108.396 232.091 107.938L232.379 106.079L232.588 106.461C232.361 107.123 232.013 107.683 231.543 108.142C231.09 108.583 230.576 108.906 230.001 109.11C229.443 109.313 228.86 109.415 228.25 109.415ZM240.352 109.364C239.951 109.364 239.655 109.228 239.463 108.957C239.272 108.685 239.211 108.312 239.28 107.836L240.9 97.8516C240.97 97.4271 241.136 97.113 241.397 96.9092C241.658 96.6884 241.998 96.5781 242.416 96.5781C242.799 96.5781 243.087 96.6969 243.278 96.9347C243.47 97.1724 243.522 97.529 243.435 98.0044L243.148 99.8893L242.991 99.4563C243.426 98.5054 244.053 97.7837 244.872 97.2912C245.708 96.7818 246.693 96.5271 247.825 96.5271C248.765 96.5271 249.549 96.7139 250.176 97.0875C250.821 97.4611 251.274 98.0299 251.535 98.794C251.814 99.5581 251.857 100.526 251.666 101.698L250.647 108.091C250.595 108.515 250.438 108.838 250.176 109.059C249.915 109.262 249.567 109.364 249.131 109.364C248.713 109.364 248.408 109.228 248.217 108.957C248.025 108.685 247.964 108.32 248.034 107.862L249.027 101.749C249.201 100.679 249.114 99.8893 248.765 99.3798C248.417 98.8534 247.79 98.5903 246.884 98.5903C245.717 98.5903 244.785 98.9384 244.088 99.6346C243.409 100.331 242.973 101.282 242.782 102.487L241.867 108.091C241.745 108.94 241.24 109.364 240.352 109.364ZM260.214 109.415C259.238 109.415 258.385 109.203 257.653 108.779C256.939 108.337 256.373 107.717 255.955 106.919C255.554 106.121 255.354 105.179 255.354 104.092C255.354 102.7 255.606 101.434 256.111 100.297C256.617 99.1421 257.348 98.2252 258.306 97.546C259.264 96.8667 260.414 96.5271 261.755 96.5271C262.766 96.5271 263.654 96.7733 264.421 97.2658C265.204 97.7412 265.744 98.4629 266.041 99.4308L265.858 99.4053L267.007 92.2735C267.077 91.832 267.234 91.5179 267.478 91.3311C267.739 91.1443 268.087 91.0509 268.523 91.0509C268.924 91.0509 269.22 91.1783 269.411 91.433C269.603 91.6707 269.664 92.0273 269.594 92.5028L267.06 108.065C266.99 108.49 266.825 108.812 266.563 109.033C266.319 109.254 265.98 109.364 265.544 109.364C265.144 109.364 264.847 109.228 264.656 108.957C264.482 108.685 264.438 108.312 264.525 107.836L264.813 106.155L264.917 106.69C264.447 107.522 263.811 108.184 263.01 108.677C262.208 109.169 261.276 109.415 260.214 109.415ZM261.181 107.429C262.069 107.429 262.818 107.182 263.428 106.69C264.037 106.197 264.499 105.544 264.813 104.729C265.144 103.897 265.309 102.98 265.309 101.978C265.309 100.857 265.03 100.008 264.473 99.4308C263.915 98.8365 263.149 98.5393 262.173 98.5393C261.285 98.5393 260.536 98.7855 259.926 99.278C259.317 99.7534 258.846 100.407 258.515 101.239C258.184 102.054 258.019 102.971 258.019 103.99C258.019 105.094 258.298 105.943 258.855 106.537C259.412 107.131 260.188 107.429 261.181 107.429ZM281.156 109.364C280.772 109.364 280.476 109.237 280.267 108.982C280.076 108.728 280.015 108.371 280.084 107.913L282.645 92.1716C282.715 91.7811 282.863 91.5009 283.089 91.3311C283.316 91.1443 283.586 91.0509 283.899 91.0509C284.248 91.0509 284.509 91.1189 284.683 91.2547C284.875 91.3736 285.058 91.5773 285.232 91.866L293.593 105.875H293.019L295.213 92.2481C295.283 91.8405 295.44 91.5434 295.684 91.3566C295.928 91.1528 296.259 91.0509 296.677 91.0509C297.06 91.0509 297.339 91.1783 297.513 91.433C297.687 91.6877 297.739 92.0358 297.67 92.4773L295.109 108.218C295.057 108.609 294.935 108.897 294.743 109.084C294.551 109.271 294.29 109.364 293.959 109.364C293.611 109.364 293.332 109.296 293.123 109.161C292.914 109.025 292.714 108.804 292.522 108.498L284.161 94.5404H284.735L282.541 108.167C282.488 108.575 282.349 108.88 282.123 109.084C281.913 109.271 281.591 109.364 281.156 109.364ZM304.312 109.415C303.563 109.415 302.866 109.254 302.221 108.931C301.577 108.592 301.063 108.142 300.68 107.581C300.297 107.004 300.105 106.359 300.105 105.646C300.105 104.763 300.349 104.049 300.837 103.506C301.342 102.963 302.126 102.564 303.188 102.309C304.251 102.037 305.618 101.901 307.291 101.901H309.381L309.146 103.481H307.526C306.324 103.481 305.366 103.54 304.651 103.659C303.955 103.778 303.458 103.99 303.162 104.296C302.866 104.584 302.718 104.983 302.718 105.493C302.718 106.172 302.944 106.69 303.397 107.047C303.868 107.403 304.425 107.581 305.07 107.581C305.662 107.581 306.211 107.454 306.716 107.199C307.221 106.945 307.648 106.58 307.996 106.104C308.362 105.612 308.597 105.026 308.702 104.347L309.198 101.29C309.355 100.39 309.224 99.7025 308.806 99.227C308.405 98.7516 307.682 98.5138 306.637 98.5138C306.028 98.5138 305.435 98.5733 304.861 98.6921C304.303 98.811 303.737 99.0148 303.162 99.3034C302.901 99.4393 302.657 99.4902 302.43 99.4563C302.204 99.4053 302.021 99.3119 301.882 99.1761C301.742 99.0233 301.664 98.845 301.647 98.6412C301.629 98.4374 301.681 98.2337 301.803 98.0299C301.943 97.8261 302.169 97.6478 302.483 97.495C303.18 97.1554 303.92 96.9092 304.704 96.7564C305.488 96.6035 306.237 96.5271 306.951 96.5271C308.223 96.5271 309.224 96.7564 309.956 97.2148C310.705 97.6733 311.21 98.3101 311.471 99.1251C311.75 99.9402 311.802 100.883 311.628 101.952L310.635 108.091C310.583 108.515 310.426 108.838 310.165 109.059C309.921 109.262 309.599 109.364 309.198 109.364C308.815 109.364 308.527 109.245 308.336 109.008C308.144 108.753 308.083 108.396 308.153 107.938L308.44 106.079L308.649 106.461C308.423 107.123 308.074 107.683 307.604 108.142C307.151 108.583 306.637 108.906 306.062 109.11C305.505 109.313 304.921 109.415 304.312 109.415ZM316.413 109.364C316.013 109.364 315.716 109.228 315.525 108.957C315.333 108.685 315.272 108.312 315.342 107.836L316.962 97.8516C317.032 97.4271 317.197 97.113 317.458 96.9092C317.72 96.6884 318.059 96.5781 318.478 96.5781C318.861 96.5781 319.148 96.6969 319.34 96.9347C319.531 97.1724 319.584 97.529 319.497 98.0044L319.209 99.8893L319.052 99.4563C319.488 98.5054 320.115 97.7837 320.934 97.2912C321.77 96.7818 322.754 96.5271 323.886 96.5271C324.827 96.5271 325.611 96.7139 326.238 97.0875C326.883 97.4611 327.335 98.0299 327.597 98.794C327.875 99.5581 327.919 100.526 327.727 101.698L326.708 108.091C326.656 108.515 326.499 108.838 326.238 109.059C325.977 109.262 325.628 109.364 325.193 109.364C324.775 109.364 324.47 109.228 324.278 108.957C324.087 108.685 324.026 108.32 324.095 107.862L325.088 101.749C325.262 100.679 325.175 99.8893 324.827 99.3798C324.479 98.8534 323.852 98.5903 322.946 98.5903C321.779 98.5903 320.847 98.9384 320.15 99.6346C319.47 100.331 319.035 101.282 318.843 102.487L317.929 108.091C317.807 108.94 317.302 109.364 316.413 109.364ZM337.19 109.415C335.988 109.415 334.96 109.195 334.106 108.753C333.253 108.312 332.591 107.675 332.121 106.843C331.668 106.011 331.441 105.026 331.441 103.888C331.441 102.801 331.607 101.817 331.938 100.934C332.286 100.034 332.765 99.2525 333.375 98.5903C334.002 97.928 334.734 97.4186 335.57 97.062C336.406 96.7054 337.32 96.5271 338.313 96.5271C339.515 96.5271 340.543 96.7564 341.397 97.2148C342.25 97.6563 342.903 98.2931 343.356 99.1251C343.827 99.9402 344.062 100.917 344.062 102.054C344.062 103.141 343.888 104.134 343.539 105.034C343.208 105.934 342.729 106.715 342.102 107.378C341.492 108.023 340.77 108.524 339.933 108.88C339.097 109.237 338.183 109.415 337.19 109.415ZM337.242 107.429C338.148 107.429 338.906 107.182 339.515 106.69C340.125 106.197 340.587 105.544 340.9 104.729C341.231 103.897 341.397 102.98 341.397 101.978C341.397 100.857 341.118 100.008 340.561 99.4308C340.003 98.8365 339.237 98.5393 338.261 98.5393C337.373 98.5393 336.615 98.7855 335.988 99.278C335.378 99.7534 334.908 100.407 334.577 101.239C334.263 102.054 334.106 102.971 334.106 103.99C334.106 105.094 334.385 105.943 334.943 106.537C335.5 107.131 336.267 107.429 337.242 107.429ZM352.516 109.415C351.471 109.415 350.6 109.22 349.903 108.829C349.223 108.439 348.744 107.896 348.466 107.199C348.204 106.503 348.152 105.688 348.309 104.754L349.302 98.7431H347.891C347.542 98.7431 347.264 98.6667 347.055 98.5138C346.863 98.361 346.767 98.1573 346.767 97.9025C346.767 97.529 346.889 97.2488 347.133 97.062C347.394 96.8583 347.725 96.7564 348.126 96.7564H349.615L350.06 94.031C350.129 93.6235 350.286 93.3263 350.53 93.1395C350.774 92.9358 351.096 92.8339 351.497 92.8339C351.95 92.8339 352.272 92.9612 352.463 93.2159C352.655 93.4537 352.716 93.8018 352.646 94.2602L352.254 96.7564H355.129C355.494 96.7564 355.773 96.8243 355.965 96.9601C356.156 97.096 356.252 97.3082 356.252 97.5969C356.252 97.9195 356.139 98.1912 355.913 98.412C355.703 98.6327 355.399 98.7431 354.998 98.7431H351.941L350.974 104.55C350.817 105.518 350.931 106.214 351.314 106.639C351.697 107.063 352.263 107.276 353.012 107.276C353.343 107.276 353.604 107.25 353.796 107.199C354.005 107.131 354.188 107.097 354.345 107.097C354.554 107.097 354.702 107.157 354.789 107.276C354.893 107.378 354.946 107.564 354.946 107.836C354.946 108.295 354.867 108.617 354.711 108.804C354.571 108.991 354.362 109.127 354.083 109.212C353.892 109.279 353.639 109.33 353.326 109.364C353.03 109.398 352.76 109.415 352.516 109.415ZM363.71 109.415C362.455 109.415 361.367 109.195 360.443 108.753C359.538 108.295 358.832 107.649 358.327 106.817C357.839 105.985 357.595 105 357.595 103.863C357.595 102.504 357.883 101.273 358.458 100.169C359.032 99.0657 359.834 98.1827 360.861 97.5205C361.907 96.8583 363.117 96.5271 364.493 96.5271C365.521 96.5271 366.384 96.7054 367.08 97.062C367.777 97.4016 368.326 97.8686 368.726 98.4629C369.127 99.0572 369.388 99.7279 369.51 100.475C369.65 101.222 369.676 101.986 369.589 102.767C369.554 103.09 369.467 103.302 369.327 103.404C369.188 103.506 368.988 103.557 368.726 103.557H359.686L359.895 101.978H367.916L367.446 102.334C367.568 101.587 367.542 100.917 367.368 100.322C367.211 99.7279 366.897 99.2525 366.427 98.8959C365.957 98.5223 365.304 98.3355 364.467 98.3355C363.614 98.3355 362.891 98.5308 362.299 98.9214C361.724 99.2949 361.271 99.7789 360.94 100.373C360.626 100.968 360.409 101.596 360.287 102.258L360.182 102.946C359.938 104.304 360.147 105.391 360.809 106.206C361.489 107.021 362.516 107.429 363.892 107.429C364.467 107.429 365.042 107.361 365.617 107.225C366.192 107.089 366.723 106.868 367.211 106.563C367.49 106.41 367.734 106.342 367.943 106.359C368.169 106.359 368.343 106.427 368.465 106.563C368.605 106.698 368.692 106.868 368.726 107.072C368.761 107.259 368.726 107.463 368.622 107.683C368.535 107.887 368.369 108.065 368.126 108.218C367.533 108.626 366.828 108.931 366.009 109.135C365.19 109.322 364.424 109.415 363.71 109.415ZM378.501 109.415C377.194 109.415 376.105 109.186 375.234 108.728C374.381 108.252 373.736 107.598 373.301 106.766C372.883 105.917 372.674 104.941 372.674 103.837C372.674 102.92 372.813 102.029 373.092 101.163C373.371 100.28 373.789 99.4987 374.346 98.8195C374.921 98.1233 375.653 97.5714 376.541 97.1639C377.429 96.7394 378.475 96.5271 379.677 96.5271C380.321 96.5271 380.948 96.612 381.558 96.7818C382.185 96.9347 382.725 97.1469 383.178 97.4186C383.474 97.5884 383.674 97.7837 383.779 98.0044C383.901 98.2082 383.944 98.4205 383.91 98.6412C383.875 98.845 383.788 99.0233 383.648 99.1761C383.526 99.3289 383.361 99.4308 383.152 99.4817C382.943 99.5157 382.716 99.4647 382.472 99.3289C382.054 99.0572 381.628 98.8619 381.192 98.7431C380.774 98.6242 380.312 98.5648 379.807 98.5648C379.006 98.5648 378.327 98.7176 377.769 99.0233C377.212 99.3119 376.75 99.7195 376.384 100.246C376.036 100.755 375.783 101.316 375.626 101.927C375.47 102.538 375.391 103.166 375.391 103.812C375.391 104.898 375.653 105.764 376.175 106.41C376.715 107.055 377.604 107.378 378.84 107.378C379.224 107.378 379.624 107.327 380.042 107.225C380.46 107.123 380.887 106.936 381.323 106.664C381.532 106.563 381.732 106.529 381.924 106.563C382.115 106.597 382.281 106.69 382.42 106.843C382.559 106.979 382.647 107.14 382.681 107.327C382.716 107.513 382.69 107.709 382.603 107.913C382.533 108.116 382.368 108.295 382.107 108.447C381.654 108.753 381.088 108.991 380.408 109.161C379.729 109.33 379.093 109.415 378.501 109.415ZM386.988 109.364C386.57 109.364 386.265 109.228 386.073 108.957C385.899 108.685 385.847 108.312 385.916 107.836L388.425 92.3245C388.494 91.9 388.651 91.5858 388.895 91.3821C389.156 91.1613 389.505 91.0509 389.94 91.0509C390.341 91.0509 390.637 91.1783 390.829 91.433C391.038 91.6877 391.107 92.0528 391.038 92.5282L389.914 99.4563H389.627C390.062 98.5054 390.689 97.7837 391.508 97.2912C392.344 96.7818 393.328 96.5271 394.461 96.5271C395.401 96.5271 396.185 96.7139 396.812 97.0875C397.457 97.4611 397.91 98.0299 398.171 98.794C398.45 99.5581 398.493 100.526 398.302 101.698L397.283 108.091C397.23 108.498 397.074 108.812 396.812 109.033C396.551 109.254 396.203 109.364 395.767 109.364C395.349 109.364 395.044 109.237 394.853 108.982C394.661 108.711 394.6 108.337 394.67 107.862L395.663 101.749C395.837 100.679 395.75 99.8893 395.401 99.3798C395.053 98.8534 394.426 98.5903 393.52 98.5903C392.353 98.5903 391.421 98.9384 390.724 99.6346C390.045 100.331 389.609 101.282 389.418 102.487L388.503 108.091C388.381 108.94 387.876 109.364 386.988 109.364ZM403.089 109.364C402.688 109.364 402.392 109.228 402.2 108.957C402.009 108.685 401.948 108.312 402.017 107.836L403.637 97.8516C403.707 97.4271 403.873 97.113 404.134 96.9092C404.395 96.6884 404.735 96.5781 405.153 96.5781C405.536 96.5781 405.824 96.6969 406.015 96.9347C406.207 97.1724 406.259 97.529 406.172 98.0044L405.885 99.8893L405.728 99.4563C406.163 98.5054 406.79 97.7837 407.609 97.2912C408.445 96.7818 409.429 96.5271 410.562 96.5271C411.502 96.5271 412.286 96.7139 412.913 97.0875C413.558 97.4611 414.011 98.0299 414.272 98.794C414.551 99.5581 414.594 100.526 414.403 101.698L413.384 108.091C413.331 108.515 413.175 108.838 412.913 109.059C412.652 109.262 412.304 109.364 411.868 109.364C411.45 109.364 411.145 109.228 410.954 108.957C410.762 108.685 410.701 108.32 410.771 107.862L411.764 101.749C411.938 100.679 411.851 99.8893 411.502 99.3798C411.154 98.8534 410.527 98.5903 409.621 98.5903C408.454 98.5903 407.522 98.9384 406.825 99.6346C406.146 100.331 405.71 101.282 405.519 102.487L404.604 108.091C404.482 108.94 403.977 109.364 403.089 109.364ZM423.865 109.415C422.663 109.415 421.635 109.195 420.782 108.753C419.928 108.312 419.266 107.675 418.796 106.843C418.343 106.011 418.117 105.026 418.117 103.888C418.117 102.801 418.282 101.817 418.613 100.934C418.962 100.034 419.441 99.2525 420.05 98.5903C420.677 97.928 421.409 97.4186 422.245 97.062C423.081 96.7054 423.996 96.5271 424.989 96.5271C426.191 96.5271 427.218 96.7564 428.072 97.2148C428.926 97.6563 429.579 98.2931 430.032 99.1251C430.502 99.9402 430.737 100.917 430.737 102.054C430.737 103.141 430.563 104.134 430.215 105.034C429.884 105.934 429.405 106.715 428.778 107.378C428.168 108.023 427.445 108.524 426.609 108.88C425.773 109.237 424.858 109.415 423.865 109.415ZM423.917 107.429C424.823 107.429 425.581 107.182 426.191 106.69C426.8 106.197 427.262 105.544 427.576 104.729C427.907 103.897 428.072 102.98 428.072 101.978C428.072 100.857 427.793 100.008 427.236 99.4308C426.678 98.8365 425.912 98.5393 424.937 98.5393C424.048 98.5393 423.29 98.7855 422.663 99.278C422.054 99.7534 421.583 100.407 421.252 101.239C420.939 102.054 420.782 102.971 420.782 103.99C420.782 105.094 421.061 105.943 421.618 106.537C422.175 107.131 422.942 107.429 423.917 107.429ZM437.857 109.415C436.515 109.415 435.54 109.042 434.93 108.295C434.338 107.53 434.155 106.418 434.381 104.958L436.472 92.3245C436.542 91.9 436.698 91.5858 436.942 91.3821C437.203 91.1613 437.552 91.0509 437.987 91.0509C438.388 91.0509 438.684 91.1783 438.876 91.433C439.067 91.6877 439.128 92.0613 439.059 92.5537L437.021 104.932C436.881 105.764 436.951 106.367 437.23 106.741C437.508 107.114 437.97 107.301 438.614 107.301C438.824 107.301 438.989 107.284 439.111 107.25C439.25 107.216 439.372 107.199 439.477 107.199C439.616 107.199 439.729 107.25 439.816 107.352C439.904 107.454 439.947 107.649 439.947 107.938C439.947 108.329 439.86 108.634 439.686 108.855C439.512 109.076 439.285 109.22 439.006 109.288C438.867 109.339 438.684 109.373 438.458 109.39C438.231 109.407 438.031 109.415 437.857 109.415ZM448.591 109.415C447.389 109.415 446.361 109.195 445.507 108.753C444.654 108.312 443.992 107.675 443.522 106.843C443.069 106.011 442.842 105.026 442.842 103.888C442.842 102.801 443.008 101.817 443.339 100.934C443.687 100.034 444.166 99.2525 444.776 98.5903C445.403 97.928 446.135 97.4186 446.971 97.062C447.807 96.7054 448.721 96.5271 449.714 96.5271C450.916 96.5271 451.944 96.7564 452.798 97.2148C453.651 97.6563 454.304 98.2931 454.757 99.1251C455.228 99.9402 455.463 100.917 455.463 102.054C455.463 103.141 455.289 104.134 454.94 105.034C454.609 105.934 454.13 106.715 453.503 107.378C452.893 108.023 452.171 108.524 451.334 108.88C450.498 109.237 449.584 109.415 448.591 109.415ZM448.643 107.429C449.549 107.429 450.307 107.182 450.916 106.69C451.526 106.197 451.988 105.544 452.301 104.729C452.632 103.897 452.798 102.98 452.798 101.978C452.798 100.857 452.519 100.008 451.961 99.4308C451.404 98.8365 450.638 98.5393 449.662 98.5393C448.774 98.5393 448.016 98.7855 447.389 99.278C446.779 99.7534 446.309 100.407 445.978 101.239C445.664 102.054 445.507 102.971 445.507 103.99C445.507 105.094 445.786 105.943 446.344 106.537C446.901 107.131 447.668 107.429 448.643 107.429ZM464.174 114C463.147 114 462.18 113.873 461.274 113.618C460.368 113.38 459.567 113.049 458.87 112.625C458.626 112.489 458.461 112.319 458.374 112.115C458.304 111.911 458.295 111.708 458.347 111.504C458.4 111.3 458.496 111.122 458.635 110.969C458.792 110.833 458.975 110.748 459.184 110.714C459.41 110.68 459.654 110.74 459.915 110.893C460.49 111.232 461.1 111.504 461.744 111.708C462.389 111.911 463.077 112.013 463.809 112.013C464.906 112.013 465.786 111.759 466.448 111.249C467.127 110.74 467.563 109.933 467.754 108.829L468.198 106.155L468.407 106.181C467.989 107.03 467.371 107.692 466.552 108.167C465.734 108.643 464.802 108.88 463.756 108.88C462.729 108.88 461.831 108.677 461.065 108.269C460.316 107.862 459.724 107.276 459.288 106.512C458.87 105.748 458.661 104.839 458.661 103.786C458.661 102.835 458.809 101.927 459.105 101.061C459.401 100.178 459.828 99.3968 460.386 98.7176C460.943 98.0384 461.614 97.5035 462.398 97.113C463.199 96.7224 464.105 96.5271 465.115 96.5271C466.143 96.5271 467.049 96.7733 467.833 97.2658C468.616 97.7412 469.156 98.4629 469.453 99.4308L469.165 99.9402L469.505 97.8261C469.575 97.4016 469.731 97.0875 469.975 96.8837C470.237 96.68 470.576 96.5781 470.994 96.5781C471.412 96.5781 471.708 96.7139 471.883 96.9856C472.057 97.2403 472.109 97.6054 472.039 98.0808L470.315 108.702C470.036 110.451 469.383 111.767 468.355 112.65C467.345 113.55 465.951 114 464.174 114ZM464.514 106.868C465.42 106.868 466.186 106.63 466.814 106.155C467.441 105.68 467.911 105.051 468.225 104.27C468.555 103.472 468.721 102.623 468.721 101.723C468.721 100.721 468.442 99.9402 467.885 99.3798C467.327 98.8195 466.535 98.5393 465.507 98.5393C464.619 98.5393 463.861 98.777 463.234 99.2525C462.607 99.7279 462.128 100.356 461.797 101.137C461.483 101.918 461.326 102.759 461.326 103.659C461.326 104.678 461.605 105.467 462.162 106.028C462.72 106.588 463.504 106.868 464.514 106.868ZM477.311 113.949C476.98 113.949 476.718 113.873 476.527 113.72C476.353 113.567 476.257 113.363 476.239 113.109C476.239 112.854 476.318 112.591 476.474 112.319L478.957 108.32L478.774 109.415L475.691 98.361C475.604 98.0214 475.586 97.7158 475.638 97.4441C475.708 97.1724 475.856 96.9601 476.083 96.8073C476.309 96.6545 476.579 96.5781 476.893 96.5781C477.276 96.5781 477.555 96.663 477.729 96.8328C477.92 97.0026 478.068 97.3082 478.173 97.7497L480.551 107.097H479.767L485.437 97.5205C485.629 97.1809 485.829 96.9432 486.038 96.8073C486.247 96.6545 486.526 96.5781 486.874 96.5781C487.205 96.5781 487.466 96.663 487.658 96.8328C487.867 96.9856 487.98 97.1894 487.998 97.4441C488.015 97.6818 487.937 97.9535 487.763 98.2591L478.748 113.032C478.556 113.355 478.356 113.584 478.147 113.72C477.938 113.873 477.659 113.949 477.311 113.949Z" fill="#E7E7E7"/>
</svg>
