<svg width="950" height="313" viewBox="0 0 950 313" fill="none" xmlns="http://www.w3.org/2000/svg">
<path d="M16.248 289V243.88H21.304L47.16 277.992V243.88H53.304V289H48.376L22.392 254.76V289H16.248ZM73.0905 289.576C70.9145 289.576 68.9732 289.149 67.2665 288.296C65.5598 287.443 64.1945 286.291 63.1705 284.84C62.1892 283.389 61.6985 281.747 61.6985 279.912C61.6985 277.608 62.2745 275.795 63.4265 274.472C64.6212 273.149 66.5625 272.189 69.2505 271.592C71.9812 270.995 75.6505 270.696 80.2585 270.696H82.4345V269.032C82.4345 266.6 81.9225 264.851 80.8985 263.784C79.8745 262.717 78.1892 262.184 75.8425 262.184C74.0505 262.184 72.2585 262.461 70.4665 263.016C68.6745 263.528 66.8398 264.36 64.9625 265.512L62.9785 260.968C64.5998 259.816 66.6265 258.899 69.0585 258.216C71.4905 257.533 73.8158 257.192 76.0345 257.192C80.3012 257.192 83.4585 258.216 85.5065 260.264C87.5545 262.269 88.5785 265.427 88.5785 269.736V289H82.4985V283.816C81.7305 285.608 80.5358 287.016 78.9145 288.04C77.2932 289.064 75.3518 289.576 73.0905 289.576ZM74.3705 284.968C76.6745 284.968 78.5945 284.157 80.1305 282.536C81.6665 280.915 82.4345 278.867 82.4345 276.392V274.664H80.3225C77.2078 274.664 74.7545 274.813 72.9625 275.112C71.2132 275.411 69.9545 275.923 69.1865 276.648C68.4612 277.331 68.0985 278.291 68.0985 279.528C68.0985 281.149 68.6532 282.472 69.7625 283.496C70.8718 284.477 72.4078 284.968 74.3705 284.968ZM110.794 289.576C106.868 289.576 103.946 288.573 102.026 286.568C100.106 284.563 99.1455 281.661 99.1455 277.864V262.76H93.0655V257.768H99.1455V248.36H105.61V257.768H115.274V262.76H105.61V277.352C105.61 279.613 106.079 281.32 107.018 282.472C107.999 283.624 109.578 284.2 111.753 284.2C112.436 284.2 113.098 284.136 113.738 284.008C114.378 283.837 115.018 283.645 115.658 283.432L116.682 288.296C116.042 288.68 115.146 288.979 113.994 289.192C112.884 289.448 111.818 289.576 110.794 289.576ZM120.281 250.536V243.816H127.833V250.536H120.281ZM120.857 289V257.768H127.321V289H120.857ZM149.987 289.576C146.83 289.576 144.099 288.915 141.795 287.592C139.491 286.269 137.699 284.413 136.419 282.024C135.182 279.592 134.563 276.712 134.563 273.384C134.563 270.056 135.182 267.197 136.419 264.808C137.699 262.376 139.491 260.499 141.795 259.176C144.099 257.853 146.83 257.192 149.987 257.192C153.059 257.192 155.747 257.853 158.051 259.176C160.355 260.499 162.147 262.376 163.427 264.808C164.707 267.197 165.347 270.056 165.347 273.384C165.347 276.712 164.707 279.592 163.427 282.024C162.147 284.413 160.355 286.269 158.051 287.592C155.747 288.915 153.059 289.576 149.987 289.576ZM149.987 284.584C152.632 284.584 154.766 283.624 156.387 281.704C158.008 279.784 158.819 277.011 158.819 273.384C158.819 269.757 158.008 267.005 156.387 265.128C154.766 263.208 152.632 262.248 149.987 262.248C147.299 262.248 145.144 263.208 143.523 265.128C141.902 267.005 141.091 269.757 141.091 273.384C141.091 277.011 141.902 279.784 143.523 281.704C145.144 283.624 147.299 284.584 149.987 284.584ZM172.607 289V257.768H178.879V262.952C179.945 261.075 181.396 259.645 183.231 258.664C185.108 257.683 187.199 257.192 189.503 257.192C196.884 257.192 200.575 261.373 200.575 269.736V289H194.111V270.12C194.111 267.432 193.577 265.469 192.511 264.232C191.487 262.995 189.865 262.376 187.647 262.376C185.044 262.376 182.953 263.208 181.375 264.872C179.839 266.493 179.071 268.648 179.071 271.336V289H172.607ZM219.466 289.576C217.29 289.576 215.348 289.149 213.642 288.296C211.935 287.443 210.57 286.291 209.546 284.84C208.564 283.389 208.074 281.747 208.074 279.912C208.074 277.608 208.65 275.795 209.802 274.472C210.996 273.149 212.938 272.189 215.626 271.592C218.356 270.995 222.026 270.696 226.634 270.696H228.81V269.032C228.81 266.6 228.298 264.851 227.274 263.784C226.25 262.717 224.564 262.184 222.218 262.184C220.426 262.184 218.634 262.461 216.842 263.016C215.05 263.528 213.215 264.36 211.338 265.512L209.354 260.968C210.975 259.816 213.002 258.899 215.434 258.216C217.866 257.533 220.191 257.192 222.41 257.192C226.676 257.192 229.834 258.216 231.882 260.264C233.93 262.269 234.954 265.427 234.954 269.736V289H228.874V283.816C228.106 285.608 226.911 287.016 225.29 288.04C223.668 289.064 221.727 289.576 219.466 289.576ZM220.746 284.968C223.05 284.968 224.97 284.157 226.506 282.536C228.042 280.915 228.81 278.867 228.81 276.392V274.664H226.698C223.583 274.664 221.13 274.813 219.338 275.112C217.588 275.411 216.33 275.923 215.562 276.648C214.836 277.331 214.474 278.291 214.474 279.528C214.474 281.149 215.028 282.472 216.138 283.496C217.247 284.477 218.783 284.968 220.746 284.968ZM254.033 289.576C250.619 289.576 248.059 288.616 246.353 286.696C244.689 284.776 243.857 281.96 243.857 278.248V243.88H250.321V277.864C250.321 282.088 252.049 284.2 255.505 284.2C256.017 284.2 256.486 284.179 256.913 284.136C257.382 284.093 257.851 284.008 258.321 283.88L258.193 289.064C256.742 289.405 255.355 289.576 254.033 289.576ZM280.232 289V257.768H286.504V263.336C288.125 259.624 291.496 257.555 296.616 257.128L298.728 257L299.176 262.504L295.272 262.888C289.597 263.443 286.76 266.365 286.76 271.656V289H280.232ZM318.325 289.576C313.205 289.576 309.173 288.147 306.229 285.288C303.285 282.387 301.813 278.44 301.813 273.448C301.813 270.248 302.453 267.432 303.733 265C305.056 262.525 306.869 260.605 309.173 259.24C311.477 257.875 314.122 257.192 317.109 257.192C321.418 257.192 324.81 258.579 327.285 261.352C329.76 264.083 330.997 267.859 330.997 272.68V274.856H308.085C308.554 281.341 311.989 284.584 318.389 284.584C320.181 284.584 321.93 284.307 323.637 283.752C325.386 283.197 327.029 282.28 328.565 281L330.485 285.48C329.077 286.76 327.264 287.763 325.045 288.488C322.826 289.213 320.586 289.576 318.325 289.576ZM317.365 261.736C314.677 261.736 312.544 262.568 310.965 264.232C309.386 265.896 308.426 268.115 308.085 270.888H325.557C325.429 267.987 324.661 265.747 323.253 264.168C321.845 262.547 319.882 261.736 317.365 261.736ZM348.988 289.576C346.428 289.576 344.039 289.256 341.82 288.616C339.601 287.933 337.745 286.995 336.252 285.8L338.108 281.448C339.687 282.557 341.415 283.411 343.292 284.008C345.212 284.605 347.132 284.904 349.052 284.904C351.313 284.904 353.02 284.499 354.172 283.688C355.324 282.877 355.9 281.789 355.9 280.424C355.9 279.315 355.516 278.461 354.748 277.864C353.98 277.224 352.828 276.733 351.292 276.392L345.212 275.176C339.836 274.067 337.148 271.293 337.148 266.856C337.148 263.912 338.321 261.565 340.668 259.816C343.015 258.067 346.087 257.192 349.884 257.192C352.06 257.192 354.129 257.512 356.092 258.152C358.097 258.792 359.761 259.752 361.084 261.032L359.228 265.384C357.948 264.275 356.476 263.421 354.812 262.824C353.148 262.227 351.505 261.928 349.884 261.928C347.665 261.928 345.98 262.355 344.828 263.208C343.676 264.019 343.1 265.128 343.1 266.536C343.1 268.669 344.508 270.035 347.324 270.632L353.404 271.848C356.177 272.403 358.268 273.341 359.676 274.664C361.127 275.987 361.852 277.779 361.852 280.04C361.852 283.027 360.679 285.373 358.332 287.08C355.985 288.744 352.871 289.576 348.988 289.576ZM383.7 289.576C378.58 289.576 374.548 288.147 371.604 285.288C368.66 282.387 367.188 278.44 367.188 273.448C367.188 270.248 367.828 267.432 369.108 265C370.431 262.525 372.244 260.605 374.548 259.24C376.852 257.875 379.497 257.192 382.484 257.192C386.793 257.192 390.185 258.579 392.66 261.352C395.135 264.083 396.372 267.859 396.372 272.68V274.856H373.46C373.929 281.341 377.364 284.584 383.764 284.584C385.556 284.584 387.305 284.307 389.012 283.752C390.761 283.197 392.404 282.28 393.94 281L395.86 285.48C394.452 286.76 392.639 287.763 390.42 288.488C388.201 289.213 385.961 289.576 383.7 289.576ZM382.74 261.736C380.052 261.736 377.919 262.568 376.34 264.232C374.761 265.896 373.801 268.115 373.46 270.888H390.932C390.804 267.987 390.036 265.747 388.628 264.168C387.22 262.547 385.257 261.736 382.74 261.736ZM413.403 289.576C411.227 289.576 409.286 289.149 407.579 288.296C405.872 287.443 404.507 286.291 403.483 284.84C402.502 283.389 402.011 281.747 402.011 279.912C402.011 277.608 402.587 275.795 403.739 274.472C404.934 273.149 406.875 272.189 409.563 271.592C412.294 270.995 415.963 270.696 420.571 270.696H422.747V269.032C422.747 266.6 422.235 264.851 421.211 263.784C420.187 262.717 418.502 262.184 416.155 262.184C414.363 262.184 412.571 262.461 410.779 263.016C408.987 263.528 407.152 264.36 405.275 265.512L403.291 260.968C404.912 259.816 406.939 258.899 409.371 258.216C411.803 257.533 414.128 257.192 416.347 257.192C420.614 257.192 423.771 258.216 425.819 260.264C427.867 262.269 428.891 265.427 428.891 269.736V289H422.811V283.816C422.043 285.608 420.848 287.016 419.227 288.04C417.606 289.064 415.664 289.576 413.403 289.576ZM414.683 284.968C416.987 284.968 418.907 284.157 420.443 282.536C421.979 280.915 422.747 278.867 422.747 276.392V274.664H420.635C417.52 274.664 415.067 274.813 413.275 275.112C411.526 275.411 410.267 275.923 409.499 276.648C408.774 277.331 408.411 278.291 408.411 279.528C408.411 281.149 408.966 282.472 410.075 283.496C411.184 284.477 412.72 284.968 414.683 284.968ZM437.794 289V257.768H444.066V263.336C445.687 259.624 449.058 257.555 454.178 257.128L456.29 257L456.738 262.504L452.834 262.888C447.159 263.443 444.322 266.365 444.322 271.656V289H437.794ZM474.992 289.576C471.792 289.576 469.018 288.915 466.672 287.592C464.368 286.227 462.576 284.328 461.296 281.896C460.016 279.421 459.376 276.52 459.376 273.192C459.376 268.243 460.784 264.339 463.6 261.48C466.416 258.621 470.213 257.192 474.992 257.192C476.954 257.192 478.896 257.533 480.816 258.216C482.736 258.899 484.314 259.837 485.552 261.032L483.504 265.576C482.309 264.467 480.986 263.656 479.536 263.144C478.128 262.589 476.784 262.312 475.503 262.312C472.474 262.312 470.128 263.272 468.464 265.192C466.842 267.069 466.032 269.757 466.032 273.256C466.032 276.755 466.842 279.507 468.464 281.512C470.128 283.475 472.474 284.456 475.503 284.456C476.784 284.456 478.128 284.2 479.536 283.688C480.986 283.133 482.309 282.301 483.504 281.192L485.552 285.8C484.314 286.952 482.714 287.869 480.752 288.552C478.832 289.235 476.912 289.576 474.992 289.576ZM491.107 289V243.88H497.571V262.632C498.637 260.84 500.067 259.496 501.859 258.6C503.693 257.661 505.741 257.192 508.003 257.192C515.384 257.192 519.075 261.373 519.075 269.736V289H512.611V270.12C512.611 267.432 512.077 265.469 511.011 264.232C509.987 262.995 508.365 262.376 506.147 262.376C503.544 262.376 501.453 263.208 499.875 264.872C498.339 266.493 497.571 268.648 497.571 271.336V289H491.107ZM544.218 250.536V243.816H551.77V250.536H544.218ZM544.794 289V257.768H551.258V289H544.794ZM560.357 289V257.768H566.629V262.952C567.695 261.075 569.146 259.645 570.981 258.664C572.858 257.683 574.949 257.192 577.253 257.192C584.634 257.192 588.325 261.373 588.325 269.736V289H581.861V270.12C581.861 267.432 581.327 265.469 580.261 264.232C579.237 262.995 577.615 262.376 575.397 262.376C572.794 262.376 570.703 263.208 569.125 264.872C567.589 266.493 566.821 268.648 566.821 271.336V289H560.357ZM599.088 289V262.76H593.008V257.768H599.088V257.192C599.088 252.883 600.176 249.64 602.352 247.464C604.57 245.288 607.962 244.072 612.528 243.816L615.344 243.624L615.792 248.488L612.848 248.68C610.245 248.851 608.368 249.555 607.216 250.792C606.106 252.029 605.552 253.864 605.552 256.296V257.768H614.32V262.76H605.552V289H599.088ZM619.419 289V257.768H625.691V263.336C627.312 259.624 630.683 257.555 635.803 257.128L637.915 257L638.363 262.504L634.459 262.888C628.784 263.443 625.947 266.365 625.947 271.656V289H619.419ZM652.966 289.576C650.79 289.576 648.848 289.149 647.142 288.296C645.435 287.443 644.07 286.291 643.046 284.84C642.064 283.389 641.574 281.747 641.574 279.912C641.574 277.608 642.15 275.795 643.302 274.472C644.496 273.149 646.438 272.189 649.126 271.592C651.856 270.995 655.526 270.696 660.134 270.696H662.31V269.032C662.31 266.6 661.798 264.851 660.774 263.784C659.75 262.717 658.064 262.184 655.718 262.184C653.926 262.184 652.134 262.461 650.342 263.016C648.55 263.528 646.715 264.36 644.838 265.512L642.854 260.968C644.475 259.816 646.502 258.899 648.934 258.216C651.366 257.533 653.691 257.192 655.91 257.192C660.176 257.192 663.334 258.216 665.382 260.264C667.43 262.269 668.454 265.427 668.454 269.736V289H662.374V283.816C661.606 285.608 660.411 287.016 658.79 288.04C657.168 289.064 655.227 289.576 652.966 289.576ZM654.246 284.968C656.55 284.968 658.47 284.157 660.006 282.536C661.542 280.915 662.31 278.867 662.31 276.392V274.664H660.198C657.083 274.664 654.63 274.813 652.838 275.112C651.088 275.411 649.83 275.923 649.062 276.648C648.336 277.331 647.974 278.291 647.974 279.528C647.974 281.149 648.528 282.472 649.638 283.496C650.747 284.477 652.283 284.968 654.246 284.968ZM688.301 289.576C685.741 289.576 683.351 289.256 681.133 288.616C678.914 287.933 677.058 286.995 675.565 285.8L677.421 281.448C678.999 282.557 680.727 283.411 682.605 284.008C684.525 284.605 686.445 284.904 688.365 284.904C690.626 284.904 692.333 284.499 693.485 283.688C694.637 282.877 695.213 281.789 695.213 280.424C695.213 279.315 694.829 278.461 694.061 277.864C693.293 277.224 692.141 276.733 690.605 276.392L684.525 275.176C679.149 274.067 676.461 271.293 676.461 266.856C676.461 263.912 677.634 261.565 679.981 259.816C682.327 258.067 685.399 257.192 689.197 257.192C691.373 257.192 693.442 257.512 695.405 258.152C697.41 258.792 699.074 259.752 700.397 261.032L698.541 265.384C697.261 264.275 695.789 263.421 694.125 262.824C692.461 262.227 690.818 261.928 689.197 261.928C686.978 261.928 685.293 262.355 684.141 263.208C682.989 264.019 682.413 265.128 682.413 266.536C682.413 268.669 683.821 270.035 686.637 270.632L692.717 271.848C695.49 272.403 697.581 273.341 698.989 274.664C700.439 275.987 701.165 277.779 701.165 280.04C701.165 283.027 699.991 285.373 697.645 287.08C695.298 288.744 692.183 289.576 688.301 289.576ZM721.356 289.576C717.431 289.576 714.508 288.573 712.588 286.568C710.668 284.563 709.708 281.661 709.708 277.864V262.76H703.628V257.768H709.708V248.36H716.172V257.768H725.836V262.76H716.172V277.352C716.172 279.613 716.641 281.32 717.58 282.472C718.561 283.624 720.14 284.2 722.316 284.2C722.999 284.2 723.66 284.136 724.3 284.008C724.94 283.837 725.58 283.645 726.22 283.432L727.244 288.296C726.604 288.68 725.708 288.979 724.556 289.192C723.447 289.448 722.38 289.576 721.356 289.576ZM731.419 289V257.768H737.691V263.336C739.312 259.624 742.683 257.555 747.803 257.128L749.915 257L750.363 262.504L746.459 262.888C740.784 263.443 737.947 266.365 737.947 271.656V289H731.419ZM766.43 289.576C758.878 289.576 755.102 285.373 755.102 276.968V257.768H761.566V277.032C761.566 279.549 762.078 281.405 763.102 282.6C764.126 283.795 765.747 284.392 767.966 284.392C770.398 284.392 772.361 283.581 773.854 281.96C775.39 280.339 776.158 278.163 776.158 275.432V257.768H782.622V289H776.35V284.008C775.326 285.843 773.961 287.229 772.254 288.168C770.547 289.107 768.606 289.576 766.43 289.576ZM805.492 289.576C802.292 289.576 799.518 288.915 797.172 287.592C794.868 286.227 793.076 284.328 791.796 281.896C790.516 279.421 789.876 276.52 789.876 273.192C789.876 268.243 791.284 264.339 794.1 261.48C796.916 258.621 800.713 257.192 805.492 257.192C807.454 257.192 809.396 257.533 811.316 258.216C813.236 258.899 814.814 259.837 816.052 261.032L814.004 265.576C812.809 264.467 811.486 263.656 810.036 263.144C808.628 262.589 807.284 262.312 806.003 262.312C802.974 262.312 800.628 263.272 798.964 265.192C797.342 267.069 796.532 269.757 796.532 273.256C796.532 276.755 797.342 279.507 798.964 281.512C800.628 283.475 802.974 284.456 806.003 284.456C807.284 284.456 808.628 284.2 810.036 283.688C811.486 283.133 812.809 282.301 814.004 281.192L816.052 285.8C814.814 286.952 813.214 287.869 811.252 288.552C809.332 289.235 807.412 289.576 805.492 289.576ZM834.981 289.576C831.056 289.576 828.133 288.573 826.213 286.568C824.293 284.563 823.333 281.661 823.333 277.864V262.76H817.253V257.768H823.333V248.36H829.797V257.768H839.461V262.76H829.797V277.352C829.797 279.613 830.266 281.32 831.205 282.472C832.186 283.624 833.765 284.2 835.941 284.2C836.624 284.2 837.285 284.136 837.925 284.008C838.565 283.837 839.205 283.645 839.845 283.432L840.869 288.296C840.229 288.68 839.333 288.979 838.181 289.192C837.072 289.448 836.005 289.576 834.981 289.576ZM856.18 289.576C848.628 289.576 844.852 285.373 844.852 276.968V257.768H851.316V277.032C851.316 279.549 851.828 281.405 852.852 282.6C853.876 283.795 855.497 284.392 857.716 284.392C860.148 284.392 862.111 283.581 863.604 281.96C865.14 280.339 865.908 278.163 865.908 275.432V257.768H872.372V289H866.1V284.008C865.076 285.843 863.711 287.229 862.004 288.168C860.297 289.107 858.356 289.576 856.18 289.576ZM881.482 289V257.768H887.754V263.336C889.375 259.624 892.746 257.555 897.866 257.128L899.978 257L900.426 262.504L896.522 262.888C890.847 263.443 888.01 266.365 888.01 271.656V289H881.482ZM919.575 289.576C914.455 289.576 910.423 288.147 907.479 285.288C904.535 282.387 903.063 278.44 903.063 273.448C903.063 270.248 903.703 267.432 904.983 265C906.306 262.525 908.119 260.605 910.423 259.24C912.727 257.875 915.372 257.192 918.359 257.192C922.668 257.192 926.06 258.579 928.535 261.352C931.01 264.083 932.247 267.859 932.247 272.68V274.856H909.335C909.804 281.341 913.239 284.584 919.639 284.584C921.431 284.584 923.18 284.307 924.887 283.752C926.636 283.197 928.279 282.28 929.815 281L931.735 285.48C930.327 286.76 928.514 287.763 926.295 288.488C924.076 289.213 921.836 289.576 919.575 289.576ZM918.615 261.736C915.927 261.736 913.794 262.568 912.215 264.232C910.636 265.896 909.676 268.115 909.335 270.888H926.807C926.679 267.987 925.911 265.747 924.503 264.168C923.095 262.547 921.132 261.736 918.615 261.736Z" fill="#E7E7E7"/>
<path d="M579.24 217.74C567.184 217.74 556.315 214.726 546.634 208.698C536.953 202.67 529.372 194.45 523.892 184.038C518.412 173.626 515.672 161.935 515.672 148.966C515.672 135.814 518.412 124.032 523.892 113.62C529.372 103.208 536.953 94.988 546.634 88.96C556.315 82.932 567.184 79.918 579.24 79.918C588.739 79.918 597.233 81.836 604.722 85.672C612.211 89.508 618.148 94.8967 622.532 101.838C627.099 108.597 629.565 116.269 629.93 124.854V172.53C629.565 181.298 627.099 189.061 622.532 195.82C618.148 202.579 612.211 207.967 604.722 211.986C597.233 215.822 588.739 217.74 579.24 217.74ZM585.816 184.586C595.863 184.586 603.991 181.298 610.202 174.722C616.413 167.963 619.518 159.287 619.518 148.692C619.518 141.751 618.057 135.631 615.134 130.334C612.394 124.854 608.467 120.653 603.352 117.73C598.42 114.625 592.575 113.072 585.816 113.072C579.24 113.072 573.395 114.625 568.28 117.73C563.348 120.653 559.421 124.854 556.498 130.334C553.758 135.631 552.388 141.751 552.388 148.692C552.388 155.816 553.758 162.118 556.498 167.598C559.421 172.895 563.348 177.097 568.28 180.202C573.395 183.125 579.24 184.586 585.816 184.586ZM617.6 215V179.38L623.354 147.048L617.6 115.264V82.658H653.22V215H617.6Z" fill="#E7E7E7"/>
<path d="M294.24 217.74C282.184 217.74 271.315 214.726 261.634 208.698C251.953 202.67 244.372 194.45 238.892 184.038C233.412 173.626 230.672 161.935 230.672 148.966C230.672 135.814 233.412 124.032 238.892 113.62C244.372 103.208 251.953 94.988 261.634 88.96C271.315 82.932 282.184 79.918 294.24 79.918C303.739 79.918 312.233 81.836 319.722 85.672C327.211 89.508 333.148 94.8967 337.532 101.838C342.099 108.597 344.565 116.269 344.93 124.854V172.53C344.565 181.298 342.099 189.061 337.532 195.82C333.148 202.579 327.211 207.967 319.722 211.986C312.233 215.822 303.739 217.74 294.24 217.74ZM300.816 184.586C310.863 184.586 318.991 181.298 325.202 174.722C331.413 167.963 334.518 159.287 334.518 148.692C334.518 141.751 333.057 135.631 330.134 130.334C327.394 124.854 323.467 120.653 318.352 117.73C313.42 114.625 307.575 113.072 300.816 113.072C294.24 113.072 288.395 114.625 283.28 117.73C278.348 120.653 274.421 124.854 271.498 130.334C268.758 135.631 267.388 141.751 267.388 148.692C267.388 155.816 268.758 162.118 271.498 167.598C274.421 172.895 278.348 177.097 283.28 180.202C288.395 183.125 294.24 184.586 300.816 184.586ZM332.6 215V179.38L338.354 147.048L332.6 115.264V82.658H368.22V215H332.6Z" fill="#E7E7E7"/>
<path d="M159.217 82.586V31H194.326L194.74 82.586H232.214V113H194.326V169.611C194.326 176.239 199.699 181.611 206.326 181.611H232.761L242 215H204.217C179.365 215 159.217 194.853 159.217 170V113H140V82.586H159.217Z" fill="#E7E7E7"/>
<path d="M78.09 218.74C64.7553 218.74 52.6993 215.726 41.922 209.698C31.3273 203.487 22.8333 195.176 16.44 184.764C10.2293 174.169 7.124 162.387 7.124 149.418C7.124 136.449 10.2293 124.849 16.44 114.62C22.6507 104.208 31.1447 95.988 41.922 89.96C52.6993 83.7493 64.664 80.644 77.816 80.644C91.3333 80.644 103.389 83.7493 113.984 89.96C124.761 95.988 133.255 104.208 139.466 114.62C145.677 124.849 148.782 136.449 148.782 149.418C148.782 162.387 145.677 174.169 139.466 184.764C133.255 195.176 124.761 203.487 113.984 209.698C103.389 215.726 91.4247 218.74 78.09 218.74ZM77.816 185.312C84.5747 185.312 90.5113 183.851 95.626 180.928C100.923 177.823 104.942 173.621 107.682 168.324C110.605 162.844 112.066 156.633 112.066 149.692C112.066 142.751 110.605 136.631 107.682 131.334C104.759 126.037 100.741 121.927 95.626 119.004C90.5113 115.899 84.5747 114.346 77.816 114.346C71.24 114.346 65.3947 115.899 60.28 119.004C55.1653 121.927 51.1467 126.037 48.224 131.334C45.3013 136.631 43.84 142.751 43.84 149.692C43.84 156.633 45.3013 162.844 48.224 168.324C51.1467 173.621 55.1653 177.823 60.28 180.928C65.3947 183.851 71.24 185.312 77.816 185.312Z" fill="#E7E7E7"/>
<path d="M872.09 217.74C858.755 217.74 846.699 214.726 835.922 208.698C825.327 202.487 816.833 194.176 810.44 183.764C804.229 173.169 801.124 161.387 801.124 148.418C801.124 135.449 804.229 123.849 810.44 113.62C816.651 103.208 825.145 94.988 835.922 88.96C846.699 82.7493 858.664 79.644 871.816 79.644C885.333 79.644 897.389 82.7493 907.984 88.96C918.761 94.988 927.255 103.208 933.466 113.62C939.677 123.849 942.782 135.449 942.782 148.418C942.782 161.387 939.677 173.169 933.466 183.764C927.255 194.176 918.761 202.487 907.984 208.698C897.389 214.726 885.425 217.74 872.09 217.74ZM871.816 184.312C878.575 184.312 884.511 182.851 889.626 179.928C894.923 176.823 898.942 172.621 901.682 167.324C904.605 161.844 906.066 155.633 906.066 148.692C906.066 141.751 904.605 135.631 901.682 130.334C898.759 125.037 894.741 120.927 889.626 118.004C884.511 114.899 878.575 113.346 871.816 113.346C865.24 113.346 859.395 114.899 854.28 118.004C849.165 120.927 845.147 125.037 842.224 130.334C839.301 135.631 837.84 141.751 837.84 148.692C837.84 155.633 839.301 161.844 842.224 167.324C845.147 172.621 849.165 176.823 854.28 179.928C859.395 182.851 865.24 184.312 871.816 184.312Z" fill="#E7E7E7"/>
<path d="M420.62 82.5403H384V215H420.62V144.671C420.62 128.997 433.326 116.29 449 116.29C464.674 116.29 477.38 128.997 477.38 144.671V215H514V140C514 106.863 487.137 80 454 80H447.118C442.441 80 437.812 80.9519 433.513 82.7977C430.547 84.0714 427.775 85.7553 425.277 87.8L420.62 91.6129V82.5403Z" fill="#E7E7E7"/>
<path d="M705.62 83.5403H669V216H705.62V145.671C705.62 129.997 718.326 117.29 734 117.29C749.674 117.29 762.38 129.997 762.38 145.671V216H799V141C799 107.863 772.137 81 739 81H732.118C727.441 81 722.812 81.9519 718.513 83.7977C715.547 85.0714 712.775 86.7553 710.277 88.8L705.62 92.6129V83.5403Z" fill="#E7E7E7"/>
</svg>
